<?xml version="1.0" encoding="UTF-8"?>
<svg version="1.1" xmlns="http://www.w3.org/2000/svg" width="769" height="267">
<path d="M0 0 C253.77 0 507.54 0 769 0 C769 88.11 769 176.22 769 267 C515.23 267 261.46 267 0 267 C0 178.89 0 90.78 0 0 Z " fill="#EAE2D5" transform="translate(0,0)"/>
<path d="M0 0 C0.598125 0.20882812 1.19625 0.41765625 1.8125 0.6328125 C1.30961405 4.93528115 0.08176751 6.84559736 -3.00390625 9.83984375 C-3.76767578 10.59072266 -4.53144531 11.34160156 -5.31835938 12.11523438 C-6.12080078 12.88416016 -6.92324219 13.65308594 -7.75 14.4453125 C-8.55630859 15.23357422 -9.36261719 16.02183594 -10.19335938 16.83398438 C-12.18270169 18.77624166 -14.18077271 20.70854911 -16.1875 22.6328125 C-12.55276316 19.64122861 -9.0678419 16.59571691 -5.8359375 13.16796875 C-5.02382812 12.31041992 -5.02382812 12.31041992 -4.1953125 11.43554688 C-3.08943312 10.25691228 -1.99330578 9.06906462 -0.90625 7.87304688 C0.7265625 6.16796875 0.7265625 6.16796875 3.8125 3.6328125 C6.7109375 3.75390625 6.7109375 3.75390625 8.8125 4.6328125 C8.31907306 9.06004314 6.94200554 10.98245397 3.77734375 14.05859375 C2.96845703 14.85458984 2.15957031 15.65058594 1.32617188 16.47070312 C0.47603516 17.28732422 -0.37410156 18.10394531 -1.25 18.9453125 C-2.10400391 19.78126953 -2.95800781 20.61722656 -3.83789062 21.47851562 C-5.94571312 23.53923594 -8.06229849 25.59004459 -10.1875 27.6328125 C-5.70069609 24.23553841 -1.81776144 20.37836065 2.125 16.3828125 C2.77017578 15.733125 3.41535156 15.0834375 4.08007812 14.4140625 C5.6598635 12.82257501 7.23725329 11.22879033 8.8125 9.6328125 C10.1325 10.2928125 11.4525 10.9528125 12.8125 11.6328125 C12.51559035 15.0624219 11.99544974 16.43856956 9.59765625 18.984375 C8.69917969 19.73460937 7.80070312 20.48484375 6.875 21.2578125 C4.01361035 23.67043744 1.8966798 25.50654279 -0.1875 28.6328125 C0.3075 28.1378125 0.3075 28.1378125 0.8125 27.6328125 C3.625 25.0078125 3.625 25.0078125 6.8125 22.6328125 C9.1875 22.8203125 9.1875 22.8203125 10.8125 23.6328125 C10.36138539 28.43588801 8.4391434 30.50930324 5.078125 33.86328125 C4.60308533 34.33977615 4.12804565 34.81627106 3.63861084 35.3072052 C2.63465742 36.30950352 1.6257662 37.30687725 0.61230469 38.29956055 C-0.93079672 39.81373488 -2.45440435 41.34566399 -3.9765625 42.88085938 C-14.04588791 52.88612297 -14.04588791 52.88612297 -22.625 53.0078125 C-28.44377276 52.88284557 -31.52020056 51.35098686 -35.62109375 47.171875 C-39.36652966 42.99141679 -40.322217 39.73375484 -40.4375 34.2578125 C-40.47617188 33.16339844 -40.47617188 33.16339844 -40.515625 32.046875 C-39.6187382 25.4483507 -35.25859636 21.18375871 -30.75 16.6953125 C-30.17701172 16.09396484 -29.60402344 15.49261719 -29.01367188 14.87304688 C-28.17352539 14.0290332 -28.17352539 14.0290332 -27.31640625 13.16796875 C-26.81181885 12.6562915 -26.30723145 12.14461426 -25.78735352 11.61743164 C-24.1875 10.6328125 -24.1875 10.6328125 -21.99194336 10.97436523 C-21.39647705 11.19165283 -20.80101074 11.40894043 -20.1875 11.6328125 C-19.81954305 14.9156784 -19.8643068 16.21944262 -21.9375 18.87109375 C-22.68 19.55558594 -23.4225 20.24007812 -24.1875 20.9453125 C-24.93 21.64269531 -25.6725 22.34007812 -26.4375 23.05859375 C-27.015 23.57808594 -27.5925 24.09757812 -28.1875 24.6328125 C-23.39847182 20.82335826 -19.28843212 16.65289714 -15.1875 12.1328125 C-3.56606974 -0.59859028 -3.56606974 -0.59859028 0 0 Z " fill="#F29463" transform="translate(139.1875,111.3671875)"/>
<path d="M0 0 C2.31 0 4.62 0 7 0 C7 13.2 7 26.4 7 40 C3.66666667 40 0.33333333 40 -3 40 C-3.76054687 40.05800781 -4.52109375 40.11601562 -5.3046875 40.17578125 C-12.25212465 40.54532578 -12.25212465 40.54532578 -16 37.8125 C-19.90927718 32.31507897 -20.75295084 27.65890902 -20 21 C-18.33281294 16.34942557 -16.30375948 13.48661659 -12 11 C-7.39294615 10.26580815 -4.22080905 10.88959548 0 13 C0 8.71 0 4.42 0 0 Z " fill="#595858" transform="translate(411,115)"/>
<path d="M0 0 C4.46150826 2.01968092 6.82513296 4.31506213 9.79296875 8.265625 C9.15230469 8.81089844 8.51164062 9.35617188 7.8515625 9.91796875 C-2.56898522 19.00294702 -8.13450089 25.10384658 -9.20703125 39.265625 C-23.3586558 27.71327843 -23.3586558 27.71327843 -24.48046875 19.1875 C-24.77066004 12.98187091 -23.37057866 8.91424589 -19.20703125 4.265625 C-13.45264768 -0.88830116 -7.40265687 -2.46318494 0 0 Z " fill="#F29462" transform="translate(105.20703125,110.734375)"/>
<path d="M0 0 C1.98 0 3.96 0 6 0 C6.33 5.61 6.66 11.22 7 17 C7.64066406 15.7728125 8.28132813 14.545625 8.94140625 13.28125 C9.81370148 11.68673184 10.68747708 10.09302291 11.5625 8.5 C12.18995117 7.28376953 12.18995117 7.28376953 12.83007812 6.04296875 C14.08667162 3.79432776 15.22380417 1.86835424 17 0 C20.83984375 -0.53125 20.83984375 -0.53125 24 0 C22.28272973 4.87014214 19.5565479 8.95622794 16.65820312 13.18359375 C15.0582733 15.65172507 14.01160556 17.47940769 13.9453125 20.453125 C15.46432367 24.12125568 17.68108405 27.092249 20.0625 30.25 C25 36.90518417 25 36.90518417 25 38 C20.80806142 38.96065259 20.80806142 38.96065259 18 38 C13.52315525 33.24539481 10.34520153 27.57533589 7 22 C6.67 27.28 6.34 32.56 6 38 C4.02 38 2.04 38 0 38 C0 25.46 0 12.92 0 0 Z " fill="#535352" transform="translate(262,117)"/>
<path d="M0 0 C2.93423195 1.79646854 4.47205355 2.9441071 6 6 C6.15222973 7.66565749 6.24917215 9.33656496 6.31640625 11.0078125 C6.35830078 11.99394531 6.40019531 12.98007813 6.44335938 13.99609375 C6.48267578 15.02863281 6.52199219 16.06117188 6.5625 17.125 C6.60568359 18.16527344 6.64886719 19.20554688 6.69335938 20.27734375 C6.7996288 22.85142528 6.90166583 25.42560508 7 28 C5.1875 28.625 5.1875 28.625 3 29 C2.01 28.34 1.02 27.68 0 27 C-0.66 27.66 -1.32 28.32 -2 29 C-4.49609375 29.3359375 -4.49609375 29.3359375 -7.4375 29.375 C-8.88962891 29.41753906 -8.88962891 29.41753906 -10.37109375 29.4609375 C-13 29 -13 29 -14.8125 27.22265625 C-16.60902374 23.86008386 -16.92005285 20.65123337 -16 17 C-13.8178309 14.2772936 -11.11817169 12.55908584 -8 11 C-5.6670134 10.95977609 -3.33293334 10.95679753 -1 11 C-1.33 9.02 -1.66 7.04 -2 5 C-5.83225427 4.91087781 -9.26562152 5.12132271 -13 6 C-13.33 4.68 -13.66 3.36 -14 2 C-9.45763142 -0.62261465 -5.1304542 -0.69734329 0 0 Z " fill="#585857" transform="translate(442,126)"/>
<path d="M0 0 C1.25103516 -0.05994141 1.25103516 -0.05994141 2.52734375 -0.12109375 C6.40409024 0.73310463 7.74312843 2.24074794 10.0625 5.4375 C10.76716185 8.6485201 10.80753216 11.7837229 10.8125 15.0625 C10.84569465 16.76308767 10.88202083 18.46361786 10.921875 20.1640625 C10.92670898 20.91252441 10.93154297 21.66098633 10.93652344 22.43212891 C10.98964301 24.64580737 10.98964301 24.64580737 12.0625 27.4375 C11.7325 28.0975 11.4025 28.7575 11.0625 29.4375 C10.464375 29.2725 9.86625 29.1075 9.25 28.9375 C6.45251729 28.29807538 4.66218785 28.13765607 2.0625 29.4375 C-1.32301548 29.85036774 -4.55733609 29.9172652 -7.9375 29.4375 C-11.07672618 26.89622167 -11.77878733 25.38977601 -12.4375 21.4375 C-11.82216097 17.74546584 -10.52133614 16.09733132 -7.9375 13.4375 C-5.41274538 12.17512269 -3.62549534 12.33893596 -0.8125 12.375 C0.09757812 12.38402344 1.00765625 12.39304688 1.9453125 12.40234375 C2.64398438 12.41394531 3.34265625 12.42554688 4.0625 12.4375 C3.4025 10.1275 2.7425 7.8175 2.0625 5.4375 C-1.2375 5.7675 -4.5375 6.0975 -7.9375 6.4375 C-8.2675 5.1175 -8.5975 3.7975 -8.9375 2.4375 C-5.88284924 0.68089945 -3.51794594 0.09214959 0 0 Z " fill="#555554" transform="translate(306.9375,125.5625)"/>
<path d="M0 0 C0.92683594 -0.0309375 1.85367188 -0.061875 2.80859375 -0.09375 C6.93669381 0.79628008 8.17468048 1.990244 10.5625 5.5 C11.30966856 9.60208715 11.35310897 13.65077191 11.375 17.8125 C11.40013672 18.93462891 11.42527344 20.05675781 11.45117188 21.21289062 C11.5099532 23.97561286 11.5462998 26.73675392 11.5625 29.5 C9.9125 29.17 8.2625 28.84 6.5625 28.5 C6.5625 27.84 6.5625 27.18 6.5625 26.5 C6.005625 26.9846875 5.44875 27.469375 4.875 27.96875 C1.01332465 30.5258053 -2.97090593 30.2864767 -7.4375 29.5 C-10.57672618 26.95872167 -11.27878733 25.45227601 -11.9375 21.5 C-11.32216097 17.80796584 -10.02133614 16.15983132 -7.4375 13.5 C-4.91274538 12.23762269 -3.12549534 12.40143596 -0.3125 12.4375 C0.59757813 12.44652344 1.50765625 12.45554688 2.4453125 12.46484375 C3.14398437 12.47644531 3.84265625 12.48804688 4.5625 12.5 C3.9025 10.19 3.2425 7.88 2.5625 5.5 C-0.9594721 5.41995518 -4.05731469 5.45994298 -7.4375 6.5 C-8.0975 5.51 -8.7575 4.52 -9.4375 3.5 C-6.29014482 0.71551636 -4.185423 0.0464402 0 0 Z " fill="#555454" transform="translate(551.4375,125.5)"/>
<path d="M0 0 C1.98 0 3.96 0 6 0 C8.64 6.6 11.28 13.2 14 20 C16.26171582 13.79322221 16.26171582 13.79322221 18.51733398 7.58422852 C18.79907471 6.81522217 19.08081543 6.04621582 19.37109375 5.25390625 C19.65911865 4.46314697 19.94714355 3.6723877 20.24389648 2.85766602 C21 1 21 1 22 0 C23.99958364 -0.04080783 26.00045254 -0.04254356 28 0 C25.83865483 7.78827668 23.06967743 15.25216385 20.0625 22.75 C19.63259766 23.84699219 19.20269531 24.94398438 18.75976562 26.07421875 C13.9944737 38.0055263 13.9944737 38.0055263 10 42 C8.48071962 42.07179964 6.95832518 42.08392007 5.4375 42.0625 C4.61121094 42.05347656 3.78492188 42.04445312 2.93359375 42.03515625 C2.29550781 42.02355469 1.65742188 42.01195312 1 42 C1.31640625 40.05859375 1.31640625 40.05859375 2 38 C2.969375 37.690625 3.93875 37.38125 4.9375 37.0625 C8.1154575 36.3085069 8.1154575 36.3085069 9.4375 33.8125 C10.94015426 26.29922872 7.46884387 19.94402429 4.4375 13.25 C3.59797179 11.38240006 2.76310925 9.51269369 1.93359375 7.640625 C1.56290771 6.82110352 1.19222168 6.00158203 0.81030273 5.15722656 C0 3 0 3 0 0 Z " fill="#565655" transform="translate(506,126)"/>
<path d="M0 0 C1.98 0 3.96 0 6 0 C6.33 0.66 6.66 1.32 7 2 C7.99 1.34 8.98 0.68 10 0 C16.94677871 -0.67226891 16.94677871 -0.67226891 20.9375 1.875 C24.0609722 5.09312288 24.12171043 6.84870089 24.09765625 11.2265625 C24.09443359 12.2578125 24.09121094 13.2890625 24.08789062 14.3515625 C24.07951172 15.43179688 24.07113281 16.51203125 24.0625 17.625 C24.05798828 18.71296875 24.05347656 19.8009375 24.04882812 20.921875 C24.03701776 23.61463789 24.02054778 26.30729188 24 29 C22.02 29 20.04 29 18 29 C17.97494385 28.37955811 17.9498877 27.75911621 17.92407227 27.11987305 C17.80803279 24.30887603 17.68534241 21.49820759 17.5625 18.6875 C17.52318359 17.71103516 17.48386719 16.73457031 17.44335938 15.72851562 C17.40146484 14.79072266 17.35957031 13.85292969 17.31640625 12.88671875 C17.27974854 12.02264404 17.24309082 11.15856934 17.20532227 10.26831055 C17.07252646 7.8352174 17.07252646 7.8352174 16 5 C14.700625 5.144375 13.40125 5.28875 12.0625 5.4375 C11.33160156 5.51871094 10.60070312 5.59992188 9.84765625 5.68359375 C7.98859771 5.81886614 7.98859771 5.81886614 7 7 C6.84285346 8.63256758 6.74914586 10.27135338 6.68359375 11.91015625 C6.64169922 12.89951172 6.59980469 13.88886719 6.55664062 14.90820312 C6.51732422 15.94912109 6.47800781 16.99003906 6.4375 18.0625 C6.37272461 19.62967773 6.37272461 19.62967773 6.30664062 21.22851562 C6.20018775 23.81886884 6.0981724 26.40932186 6 29 C4.02 29 2.04 29 0 29 C0 19.43 0 9.86 0 0 Z " fill="#525252" transform="translate(458,126)"/>
<path d="M0 0 C1.98 0 3.96 0 6 0 C6 0.66 6 1.32 6 2 C7.0209375 1.505 7.0209375 1.505 8.0625 1 C11.69217226 -0.23563311 14.18311372 -0.46874042 18 0 C22.22959567 2.32395366 22.22959567 2.32395366 24 5 C24.74601813 9.12524183 24.56531887 13.13768487 24.375 17.3125 C24.34792969 18.43462891 24.32085937 19.55675781 24.29296875 20.71289062 C24.22239001 23.47722459 24.12384488 26.23762415 24 29 C22.02 29 20.04 29 18 29 C17.97494385 28.37432129 17.9498877 27.74864258 17.92407227 27.10400391 C17.80824727 24.27745381 17.68546015 21.45124831 17.5625 18.625 C17.52318359 17.64015625 17.48386719 16.6553125 17.44335938 15.640625 C17.40146484 14.69960937 17.35957031 13.75859375 17.31640625 12.7890625 C17.27974854 11.91975098 17.24309082 11.05043945 17.20532227 10.15478516 C17.12598456 7.9516738 17.12598456 7.9516738 16 6 C11.99745544 5.90818866 11.99745544 5.90818866 8 6 C6.34920558 7.65079442 6.77450553 9.63736179 6.68359375 11.91015625 C6.64169922 12.89951172 6.59980469 13.88886719 6.55664062 14.90820312 C6.51732422 15.94912109 6.47800781 16.99003906 6.4375 18.0625 C6.37272461 19.62967773 6.37272461 19.62967773 6.30664062 21.22851562 C6.20018775 23.81886884 6.0981724 26.40932186 6 29 C4.02 29 2.04 29 0 29 C0 19.43 0 9.86 0 0 Z " fill="#545454" transform="translate(360,126)"/>
<path d="M0 0 C1.98 0 3.96 0 6 0 C6.01981934 0.58491211 6.03963867 1.16982422 6.06005859 1.77246094 C6.15553481 4.43208025 6.26512142 7.09093838 6.375 9.75 C6.4059375 10.67039063 6.436875 11.59078125 6.46875 12.5390625 C6.50742187 13.42851562 6.54609375 14.31796875 6.5859375 15.234375 C6.6173584 16.05131836 6.6487793 16.86826172 6.68115234 17.70996094 C7.02343693 20.16832958 7.7739277 21.85759999 9 24 C12.96 23.505 12.96 23.505 17 23 C17.33 15.41 17.66 7.82 18 0 C19.98 0 21.96 0 24 0 C24 9.57 24 19.14 24 29 C22.02 29 20.04 29 18 29 C18 28.34 18 27.68 18 27 C17.43152344 27.3196875 16.86304688 27.639375 16.27734375 27.96875 C13.88227097 29.05331126 12.17745379 29.39123242 9.5625 29.5 C8.45068359 29.57734375 8.45068359 29.57734375 7.31640625 29.65625 C4.42067534 28.8358743 2.7947671 27.44393341 0.97485352 25.06347656 C-1.08833476 20.69631721 -0.50145311 15.84592068 -0.3125 11.125 C-0.28994141 10.05507812 -0.26738281 8.98515625 -0.24414062 7.8828125 C-0.18545633 5.25375593 -0.1034118 2.62761418 0 0 Z " fill="#515151" transform="translate(644,126)"/>
<path d="M0 0 C1.98 0 3.96 0 6 0 C6.01981934 0.62044189 6.03963867 1.24088379 6.06005859 1.88012695 C6.15531845 4.69134537 6.26499302 7.50182166 6.375 10.3125 C6.4059375 11.28896484 6.436875 12.26542969 6.46875 13.27148438 C6.50742187 14.20927734 6.54609375 15.14707031 6.5859375 16.11328125 C6.6173584 16.97735596 6.6487793 17.84143066 6.68115234 18.73168945 C6.87188037 21.27742445 6.87188037 21.27742445 9 24 C12.96 23.505 12.96 23.505 17 23 C17.33 15.41 17.66 7.82 18 0 C19.98 0 21.96 0 24 0 C24 9.57 24 19.14 24 29 C22.02 29 20.04 29 18 29 C18 28.34 18 27.68 18 27 C17.43152344 27.3196875 16.86304688 27.639375 16.27734375 27.96875 C13.88227097 29.05331126 12.17745379 29.39123242 9.5625 29.5 C8.45068359 29.57734375 8.45068359 29.57734375 7.31640625 29.65625 C4.42067534 28.8358743 2.7947671 27.44393341 0.97485352 25.06347656 C-1.08833476 20.69631721 -0.50145311 15.84592068 -0.3125 11.125 C-0.28994141 10.05507812 -0.26738281 8.98515625 -0.24414062 7.8828125 C-0.18545633 5.25375593 -0.1034118 2.62761418 0 0 Z " fill="#515151" transform="translate(327,126)"/>
<path d="M0 0 C9.57 0 19.14 0 29 0 C29 1.32 29 2.64 29 4 C25.04 4 21.08 4 17 4 C17 15.22 17 26.44 17 38 C15.02 38 13.04 38 11 38 C11 26.78 11 15.56 11 4 C7.37 4 3.74 4 0 4 C0 2.68 0 1.36 0 0 Z " fill="#505050" transform="translate(585,117)"/>
<path d="M0 0 C0.66 0.33 1.32 0.66 2 1 C1.67 2.65 1.34 4.3 1 6 C-2.3 6 -5.6 6 -9 6 C-9.2113453 8.3912295 -9.2113453 8.3912295 -8 11 C-5.80235287 12.24955682 -3.59768155 13.13505533 -1.2265625 14.0078125 C1.13733617 15.06119893 2.44266105 15.93866786 4 18 C3.93135494 21.77547811 3.63587893 24.14813369 1.35546875 27.203125 C-1.77808951 29.59356745 -3.72734718 29.44007554 -7.625 29.3125 C-8.77226563 29.28800781 -9.91953125 29.26351562 -11.1015625 29.23828125 C-14 29 -14 29 -16 28 C-15.625 26.0625 -15.625 26.0625 -15 24 C-14.34 23.67 -13.68 23.34 -13 23 C-12.34 23.33 -11.68 23.66 -11 24 C-8.6670134 24.04022391 -6.33293334 24.04320247 -4 24 C-3.67 22.68 -3.34 21.36 -3 20 C-3.67546875 19.68546875 -4.3509375 19.3709375 -5.046875 19.046875 C-14.97052428 14.28581783 -14.97052428 14.28581783 -17 11 C-17.07267861 6.92999768 -16.61508138 4.7996058 -14.125 1.5625 C-9.51569819 -0.74215091 -5.06769661 -0.49779306 0 0 Z " fill="#575756" transform="translate(693,126)"/>
<path d="M0 0 C1.98 0 3.96 0 6 0 C6 2.64 6 5.28 6 8 C7.65 8 9.3 8 11 8 C11 9.32 11 10.64 11 12 C9.35 12 7.7 12 6 12 C6.33 18.27 6.66 24.54 7 31 C9.475 31.99 9.475 31.99 12 33 C12 34.32 12 35.64 12 37 C10.56416999 37.10836453 9.1259798 37.18576167 7.6875 37.25 C6.88699219 37.29640625 6.08648438 37.3428125 5.26171875 37.390625 C3 37 3 37 1.37695312 35.28710938 C-0.23942654 32.60231421 -0.34983543 31.12433671 -0.29296875 28.015625 C-0.28330078 27.08105469 -0.27363281 26.14648438 -0.26367188 25.18359375 C-0.23853516 24.21550781 -0.21339844 23.24742187 -0.1875 22.25 C-0.17396484 21.26644531 -0.16042969 20.28289062 -0.14648438 19.26953125 C-0.11118726 16.84579585 -0.06188054 14.42317855 0 12 C-1.32 12 -2.64 12 -4 12 C-4 10.68 -4 9.36 -4 8 C-2.68 8 -1.36 8 0 8 C0 5.36 0 2.72 0 0 Z " fill="#525251" transform="translate(707,118)"/>
<path d="M0 0 C1.98 0 3.96 0 6 0 C6.33 0.66 6.66 1.32 7 2 C7.66 1.34 8.32 0.68 9 0 C12.625 -0.125 12.625 -0.125 16 0 C16 1.98 16 3.96 16 6 C12.7 6.33 9.4 6.66 6 7 C6 14.26 6 21.52 6 29 C4.02 29 2.04 29 0 29 C0 19.43 0 9.86 0 0 Z " fill="#515151" transform="translate(621,126)"/>
<path d="M0 0 C3 0.6875 3 0.6875 5.375 3.25 C7.22744549 7.16863469 7.54509491 9.40461139 7 13.6875 C5.59539303 16.56055972 4.25489001 18.43260999 2 20.6875 C-0.9375 20.6875 -0.9375 20.6875 -4 19.6875 C-7.36011388 15.09534437 -7.60803743 11.15983686 -7 5.6875 C-5.03191276 2.05410817 -4.04427233 0.92681241 0 0 Z " fill="#E4DCD0" transform="translate(405,130.3125)"/>
<path d="M0 0 C1.98 0 3.96 0 6 0 C6 9.57 6 19.14 6 29 C4.02 29 2.04 29 0 29 C0 19.43 0 9.86 0 0 Z " fill="#505050" transform="translate(491,126)"/>
<path d="M0 0 C0.66 0 1.32 0 2 0 C1.40165275 4.14298667 -0.00664285 7.18194377 -2.0625 10.8125 C-2.61035156 11.78832031 -3.15820312 12.76414063 -3.72265625 13.76953125 C-4.14417969 14.50558594 -4.56570312 15.24164063 -5 16 C-5.99 16 -6.98 16 -8 16 C-8 15.34 -8 14.68 -8 14 C-8.804375 13.855625 -9.60875 13.71125 -10.4375 13.5625 C-13 13 -13 13 -14 12 C-14.55775398 7.90980412 -14.31625995 6.42469193 -11.8125 3.0625 C-9 1 -9 1 -6.3125 1.125 C-4 2 -4 2 -2 3 C-1.34 2.01 -0.68 1.02 0 0 Z " fill="#F29C6F" transform="translate(94,211)"/>
<path d="M0 0 C3.40343405 0.18564186 6.03739882 0.37896698 8.9375 2.25 C10.44180259 4.72767486 10.48669885 6.14933533 10 9 C8.4375 11.375 8.4375 11.375 6 13 C2.375 12.9375 2.375 12.9375 -1 12 C-3 9 -3 9 -2.75 5.4375 C-2 2 -2 2 0 0 Z " fill="#F29565" transform="translate(36,134)"/>
<path d="M0 0 C3 0.875 3 0.875 4.9375 2.625 C6 4.875 6 4.875 5.9375 7.4375 C4.78464398 10.43492565 3.82976458 11.38151314 1 12.875 C-1.5625 13.3125 -1.5625 13.3125 -4 12.875 C-5.875 11.3125 -5.875 11.3125 -7 8.875 C-6.875 5.25 -6.875 5.25 -6 1.875 C-3 -0.125 -3 -0.125 0 0 Z " fill="#F29565" transform="translate(218,134.125)"/>
<path d="M0 0 C2.47266124 2.26237627 4.063866 4.57453333 5.6875 7.5 C6.34298828 8.66015625 6.34298828 8.66015625 7.01171875 9.84375 C8 12 8 12 8 15 C7.01 15 6.02 15 5 15 C5 15.66 5 16.32 5 17 C2.75 17.75 2.75 17.75 0 18 C-2.3125 16.4375 -2.3125 16.4375 -4 14 C-4.5 10.9375 -4.5 10.9375 -4 8 C-2 6.125 -2 6.125 0 5 C-0.2784375 4.0409375 -0.2784375 4.0409375 -0.5625 3.0625 C-0.706875 2.381875 -0.85125 1.70125 -1 1 C-0.67 0.67 -0.34 0.34 0 0 Z " fill="#F19D70" transform="translate(84,51)"/>
<path d="M0 0 C0 0.66 0 1.32 0 2 C-1.65 2.66 -3.3 3.32 -5 4 C-1.535 5.485 -1.535 5.485 2 7 C2 7.66 2 8.32 2 9 C1.00419922 8.89558594 1.00419922 8.89558594 -0.01171875 8.7890625 C-5.20262406 8.31557365 -5.20262406 8.31557365 -9.77734375 10.3359375 C-11.30693291 12.15556666 -11.30693291 12.15556666 -13 15 C-13.75 13.3125 -13.75 13.3125 -14 11 C-12.0625 8.25 -12.0625 8.25 -10 6 C-12.31 6.33 -14.62 6.66 -17 7 C-17 6.01 -17 5.02 -17 4 C-14.54453034 3.13670227 -12.08621957 2.28410564 -9.625 1.4375 C-8.57699219 1.0672168 -8.57699219 1.0672168 -7.5078125 0.68945312 C-2.2265625 -1.11328125 -2.2265625 -1.11328125 0 0 Z " fill="#F29C6E" transform="translate(54,163)"/>
<path d="M0 0 C2.31 0.33 4.62 0.66 7 1 C7.19294408 5.82360189 6.75747614 9.49646738 5 14 C2.36 13.34 -0.28 12.68 -3 12 C-3.625 9.625 -3.625 9.625 -4 7 C-2 5 -2 5 1.625 4.875 C3.295625 4.936875 3.295625 4.936875 5 5 C5 4.01 5 3.02 5 2 C3.35 2 1.7 2 0 2 C0 1.34 0 0.68 0 0 Z " fill="#F29C6E" transform="translate(99,219)"/>
<path d="M0 0 C0.99 0.33 1.98 0.66 3 1 C3.33 2.98 3.66 4.96 4 7 C2.71283353 8.00578589 1.42011342 9.00446798 0.125 10 C-0.59429687 10.556875 -1.31359375 11.11375 -2.0546875 11.6875 C-4 13 -4 13 -6 13 C-8.17364926 10.18230651 -9.08677021 8.7809319 -8.6875 5.1875 C-8.460625 4.465625 -8.23375 3.74375 -8 3 C-6.35 2.67 -4.7 2.34 -3 2 C-2.34 3.32 -1.68 4.64 -1 6 C-0.34 5.67 0.32 5.34 1 5 C0.67 3.35 0.34 1.7 0 0 Z " fill="#F29C6E" transform="translate(54,180)"/>
<path d="M0 0 C1.65 0 3.3 0 5 0 C5.67408308 1.26691507 6.33900497 2.53870749 7 3.8125 C7.556875 4.87404297 7.556875 4.87404297 8.125 5.95703125 C9 8 9 8 9 11 C5.87703962 12.85064319 3.62059232 13.29356154 0 13 C-1 12 -1 12 -1.1875 9.5625 C-1 7 -1 7 1 5 C1.99 5 2.98 5 4 5 C3.67 4.34 3.34 3.68 3 3 C1.35 3.33 -0.3 3.66 -2 4 C-1.34 2.68 -0.68 1.36 0 0 Z " fill="#F29869" transform="translate(155,218)"/>
<path d="M0 0 C0.29296875 6.0546875 0.29296875 6.0546875 0 8 C-3.44107266 10.29404844 -4.96839809 10.26293056 -9 10 C-10 9 -10 9 -10.25 6.125 C-10 3 -10 3 -8.9375 1.125 C-5.99772876 -0.58196395 -3.32129197 -0.18799766 0 0 Z " fill="#DFD8CC" transform="translate(442,141)"/>
<path d="M0 0 C0.1953125 6.0546875 0.1953125 6.0546875 0 8 C-2 10 -2 10 -5 10.25 C-8 10 -8 10 -10 8 C-10.35571424 5.22542896 -10.36405327 3.62103204 -8.9375 1.1875 C-6.00731249 -0.60842137 -3.3527047 -0.18977574 0 0 Z " fill="#E2DACE" transform="translate(311,141)"/>
<path d="M0 0 C4.59306496 1.4859916 7.43569245 3.85014682 11 7 C8.85882353 13.09411765 8.85882353 13.09411765 6 15 C1.09930497 15 -1.55213258 12.12713557 -5 9 C-4.67 8.01 -4.34 7.02 -4 6 C-3.52949219 6.3609375 -3.05898437 6.721875 -2.57421875 7.09375 C-1.95160156 7.5578125 -1.32898438 8.021875 -0.6875 8.5 C-0.07261719 8.9640625 0.54226562 9.428125 1.17578125 9.90625 C3.07433005 11.25711283 3.07433005 11.25711283 6 11 C5.86965506 9.12946603 5.86965506 9.12946603 5 7 C3.33729713 5.66172696 1.67083819 4.32810215 0 3 C0 2.01 0 1.02 0 0 Z " fill="#F29D6F" transform="translate(197,185)"/>
<path d="M0 0 C0.29296875 6.0546875 0.29296875 6.0546875 0 8 C-3.22373677 10.14915785 -4.26703674 10.38286803 -8 10 C-10 8 -10 8 -10.3125 5.5625 C-10 3 -10 3 -8.9375 1.1875 C-6.00731249 -0.60842137 -3.3527047 -0.18977574 0 0 Z " fill="#E3DBCF" transform="translate(556,141)"/>
<path d="M0 0 C2.49361571 1.20381448 4.68143083 2.45428722 7 4 C7.5625 6.6875 7.5625 6.6875 7 10 C5.22641039 12.56527889 3.19599334 14.79093527 1 17 C0.34 16.67 -0.32 16.34 -1 16 C0.1858237 12.62496331 1.27573689 10.35277269 4 8 C3.67 7.01 3.34 6.02 3 5 C0.43509874 6.0992434 -1.12843192 7.12843192 -3.125 9.125 C-3.74375 9.74375 -4.3625 10.3625 -5 11 C-5.66 11 -6.32 11 -7 11 C-5.5140084 6.40693504 -3.14985318 3.56430755 0 0 Z " fill="#F29C6E" transform="translate(72,202)"/>
<path d="M0 0 C3.78496138 1.51398455 4.0072198 2.0144396 6 6 C8.97 5.34 11.94 4.68 15 4 C15 4.99 15 5.98 15 7 C12.69 7.66 10.38 8.32 8 9 C10.475 9.99 10.475 9.99 13 11 C13 11.66 13 12.32 13 13 C7.54520815 12.43179252 3.08940744 11.05362055 -2 9 C-2 8.34 -2 7.68 -2 7 C-0.02 7 1.96 7 4 7 C3.01 5.824375 3.01 5.824375 2 4.625 C0 2 0 2 0 0 Z " fill="#F29B6D" transform="translate(36,104)"/>
<path d="M0 0 C0.99 0 1.98 0 3 0 C2.54771375 2.39711711 2.0883992 4.79252818 1.625 7.1875 C1.49867188 7.86103516 1.37234375 8.53457031 1.2421875 9.22851562 C0.50353223 13.0141239 -0.42623223 16.47612869 -2 20 C-3.32 20 -4.64 20 -6 20 C-6 19.34 -6 18.68 -6 18 C-5.34 17.67 -4.68 17.34 -4 17 C-3.25114958 12.20735734 -5.30048288 9.55513182 -7.90625 5.76953125 C-9 4 -9 4 -9 2 C-8.01 2 -7.02 2 -6 2 C-3 7.75 -3 7.75 -3 10 C-2.34 10 -1.68 10 -1 10 C-0.67 6.7 -0.34 3.4 0 0 Z " fill="#F29B6D" transform="translate(145,221)"/>
<path d="M0 0 C1.44375 0.12375 2.8875 0.2475 4.375 0.375 C5.59316406 0.47941406 5.59316406 0.47941406 6.8359375 0.5859375 C9 1 9 1 11 3 C10.9765625 5.6015625 10.9765625 5.6015625 10.625 8.625 C10.45871094 10.12933594 10.45871094 10.12933594 10.2890625 11.6640625 C10.14597656 12.82035156 10.14597656 12.82035156 10 14 C9.01 14 8.02 14 7 14 C7.33 10.37 7.66 6.74 8 3 C6.35 3 4.7 3 3 3 C2.67 6.3 2.34 9.6 2 13 C1.01 13 0.02 13 -1 13 C-0.67 8.71 -0.34 4.42 0 0 Z " fill="#F29A6C" transform="translate(112,222)"/>
<path d="M0 0 C0.99 0.33 1.98 0.66 3 1 C2.3503125 1.70576172 2.3503125 1.70576172 1.6875 2.42578125 C1.130625 3.04839844 0.57375 3.67101562 0 4.3125 C-0.556875 4.92738281 -1.11375 5.54226562 -1.6875 6.17578125 C-3.29201498 8.03131335 -3.29201498 8.03131335 -3 11 C0.87132028 10.42647107 3.08172796 8.51295648 6 6 C6.66 6.33 7.32 6.66 8 7 C8 7.66 8 8.32 8 9 C6.03125 10.7265625 6.03125 10.7265625 3.5 12.625 C2.6646875 13.25664062 1.829375 13.88828125 0.96875 14.5390625 C0.3190625 15.02117187 -0.330625 15.50328125 -1 16 C-3.79329389 14.06618115 -5.6857672 12.68083774 -7.125 9.5625 C-7 7 -7 7 -4.6875 4.3125 C-3.800625 3.549375 -2.91375 2.78625 -2 2 C-1.34 1.34 -0.68 0.68 0 0 Z " fill="#F29A6B" transform="translate(61,191)"/>
<path d="M0 0 C3.96502948 0.45057153 7.35465276 1.39175857 11 3 C10.34 5.31 9.68 7.62 9 10 C6.625 10.625 6.625 10.625 4 11 C3.34 10.34 2.68 9.68 2 9 C2.375 5.875 2.375 5.875 3 3 C2.34 3 1.68 3 1 3 C0.67 3.99 0.34 4.98 0 6 C-0.66 6 -1.32 6 -2 6 C-1.125 1.125 -1.125 1.125 0 0 Z " fill="#EFB592" transform="translate(47,91)"/>
<path d="M0 0 C5.875 0.875 5.875 0.875 7 2 C6.62206515 5.90532683 6.23947487 9.2815754 5 13 C2.69 12.34 0.38 11.68 -2 11 C-2.38218767 9.34385343 -2.71395102 7.67542976 -3 6 C-2 5 -2 5 1.5625 4.9375 C2.696875 4.958125 3.83125 4.97875 5 5 C4.67 4.34 4.34 3.68 4 3 C1.97536745 2.34786708 1.97536745 2.34786708 0 2 C0 1.34 0 0.68 0 0 Z " fill="#F29B6E" transform="translate(155,50)"/>
<path d="M0 0 C0.99 2.97 1.98 5.94 3 9 C-1.17908064 11.08954032 -1.80410573 11.16552619 -6 10 C-6 8.35 -6 6.7 -6 5 C-4.68 4.67 -3.36 4.34 -2 4 C-2.33 3.34 -2.66 2.68 -3 2 C-4.32 2.33 -5.64 2.66 -7 3 C-7 2.01 -7 1.02 -7 0 C-4.3333581 -1.33332095 -2.83319697 -0.67102033 0 0 Z " fill="#F29B6D" transform="translate(103,51)"/>
<path d="M0 0 C2.93014415 1.55663908 4.85148708 3.55590159 7 6.0625 C7 7.0525 7 8.0425 7 9.0625 C3.83884224 7.69266497 3.0072908 7.0734362 1 4.0625 C-1.05925139 3.33867533 -1.05925139 3.33867533 -3 3.0625 C-1.66511872 6.65641114 -0.03977277 9.81740696 2 13.0625 C1.01 13.3925 0.02 13.7225 -1 14.0625 C-2.00578589 12.77533353 -3.00446798 11.48261342 -4 10.1875 C-4.556875 9.46820313 -5.11375 8.74890625 -5.6875 8.0078125 C-7 6.0625 -7 6.0625 -7 4.0625 C-2.91512915 0.09109779 -2.91512915 0.09109779 0 0 Z " fill="#F19D70" transform="translate(72,64.9375)"/>
<path d="M0 0 C3.99500618 1.3697164 6.80009492 3.25722422 10 6 C8.72431911 8.84574968 7.58503711 11.18089981 5 13 C0.60921741 12.88445309 -1.79525624 10.83848733 -5 8 C-4.67 7.01 -4.34 6.02 -4 5 C-3.0925 5.639375 -2.185 6.27875 -1.25 6.9375 C1.39221381 8.61428953 2.9898499 9.53689998 6 10 C6 8.68 6 7.36 6 6 C5.38125 5.7525 4.7625 5.505 4.125 5.25 C1.64931313 3.79371361 1.04874998 2.62187494 0 0 Z " fill="#F29C6F" transform="translate(58,76)"/>
<path d="M0 0 C0.99 0 1.98 0 3 0 C3.66 2.64 4.32 5.28 5 8 C6.32 5.69 7.64 3.38 9 1 C9.66 1 10.32 1 11 1 C9.49233686 6.72911994 6.78351836 12.41995145 3 17 C1.68 17 0.36 17 -1 17 C-1 16.34 -1 15.68 -1 15 C-0.01 15 0.98 15 2 15 C1.34650367 7.44961578 1.34650367 7.44961578 0 0 Z " fill="#F29C6E" transform="translate(137,46)"/>
<path d="M0 0 C2 2 2 2 2.1953125 3.9453125 C2.13020833 5.96354167 2.06510417 7.98177083 2 10 C1.34 10 0.68 10 0 10 C-0.66 7.36 -1.32 4.72 -2 2 C-3.32 2 -4.64 2 -6 2 C-5.67 2.66 -5.34 3.32 -5 4 C-4.86584528 6.6723621 -4.95681459 9.32250488 -5 12 C-5.66 12 -6.32 12 -7 12 C-7.66 8.04 -8.32 4.08 -9 0 C-3.10714286 -1.17857143 -3.10714286 -1.17857143 0 0 Z " fill="#F19D6F" transform="translate(119,47)"/>
<path d="M0 0 C0 0.99 0 1.98 0 3 C-3 5.1875 -3 5.1875 -6 7 C-5.67 7.99 -5.34 8.98 -5 10 C-4.443125 9.71125 -3.88625 9.4225 -3.3125 9.125 C-0.91505355 7.9586747 1.51596939 6.9660119 4 6 C4 6.99 4 7.98 4 9 C2.57421875 10.38671875 2.57421875 10.38671875 0.6875 11.6875 C0.07261719 12.12449219 -0.54226562 12.56148437 -1.17578125 13.01171875 C-3 14 -3 14 -6 14 C-8.22397072 11.85545681 -8.98268542 10.67526879 -9.0625 7.5625 C-7.53926571 3.88881731 -4.27420758 0 0 0 Z " fill="#F29C6E" transform="translate(203,81)"/>
<path d="M0 0 C0 2 0 2 -1.5 3.625 C-1.995 4.07875 -2.49 4.5325 -3 5 C-2.48308594 5.68707031 -1.96617187 6.37414062 -1.43359375 7.08203125 C-0.77488281 7.98308594 -0.11617187 8.88414062 0.5625 9.8125 C1.55443359 11.15248047 1.55443359 11.15248047 2.56640625 12.51953125 C3.03949219 13.33808594 3.51257813 14.15664062 4 15 C3.67 15.99 3.34 16.98 3 18 C-0.63559661 14.56638098 -3.36113346 11.2026393 -6 7 C-7.65 7.66 -9.3 8.32 -11 9 C-11 8.01 -11 7.02 -11 6 C-9.1015625 4.39453125 -9.1015625 4.39453125 -6.625 2.8125 C-5.81289062 2.28269531 -5.00078125 1.75289062 -4.1640625 1.20703125 C-2 0 -2 0 0 0 Z " fill="#F29A6C" transform="translate(180,201)"/>
<path d="M0 0 C0.66 0.66 1.32 1.32 2 2 C1.34 3.32 0.68 4.64 0 6 C0.721875 5.484375 1.44375 4.96875 2.1875 4.4375 C5.4195366 2.78557018 6.61608307 2.93648325 10 4 C10 5.98 10 7.96 10 10 C8.02 10.99 8.02 10.99 6 12 C6.66 10.02 7.32 8.04 8 6 C6.9171875 6.7734375 6.9171875 6.7734375 5.8125 7.5625 C2.5804634 9.21442982 1.38391693 9.06351675 -2 8 C-2.6875 5.6875 -2.6875 5.6875 -3 3 C-1.5625 1.1875 -1.5625 1.1875 0 0 Z " fill="#F29B6D" transform="translate(204,174)"/>
<path d="M0 0 C0.33 0.66 0.66 1.32 1 2 C4.36528073 2.53417154 7.59627516 3 11 3 C10.67 4.32 10.34 5.64 10 7 C5.71 6.67 1.42 6.34 -3 6 C-3 5.34 -3 4.68 -3 4 C-3.99 3.67 -4.98 3.34 -6 3 C-6 2.34 -6 1.68 -6 1 C-3.92446352 0.4465236 -2.15634036 0 0 0 Z " fill="#F29B6D" transform="translate(209,164)"/>
<path d="M0 0 C-0.59834725 4.14298667 -2.00664285 7.18194377 -4.0625 10.8125 C-4.61035156 11.78832031 -5.15820312 12.76414063 -5.72265625 13.76953125 C-6.14417969 14.50558594 -6.56570312 15.24164063 -7 16 C-7.99 16 -8.98 16 -10 16 C-10 15.34 -10 14.68 -10 14 C-10.66 13.67 -11.32 13.34 -12 13 C-11.01 13 -10.02 13 -9 13 C-8.82984375 12.39671875 -8.6596875 11.7934375 -8.484375 11.171875 C-5.09677419 0 -5.09677419 0 0 0 Z " fill="#F2996A" transform="translate(96,211)"/>
<path d="M0 0 C-1.5675518 1.7021698 -3.15459784 3.38640554 -4.75 5.0625 C-5.63171875 6.00222656 -6.5134375 6.94195312 -7.421875 7.91015625 C-10 10 -10 10 -12.328125 9.80859375 C-12.87984375 9.54175781 -13.4315625 9.27492188 -14 9 C-12.43989422 4.78771439 -9.5154607 2.65453155 -6 0 C-3 -1 -3 -1 0 0 Z " fill="#F29767" transform="translate(133,111)"/>
<path d="M0 0 C7.57142857 4.14285714 7.57142857 4.14285714 10 7 C7.03 6.505 7.03 6.505 4 6 C3.7525 6.53625 3.505 7.0725 3.25 7.625 C1.69347463 10.5823982 -0.03435673 13.29724051 -2 16 C-2.66 16 -3.32 16 -4 16 C-3.53697041 12.99030766 -2.73722614 11.64448243 -0.875 9.125 C1.33506574 6.12207003 1.33506574 6.12207003 0.75 2.625 C0.5025 1.75875 0.255 0.8925 0 0 Z " fill="#F29C6F" transform="translate(180,57)"/>
<path d="M0 0 C0 0.99 0 1.98 0 3 C-0.99 3 -1.98 3 -3 3 C-3 3.66 -3 4.32 -3 5 C-5.64 5.33 -8.28 5.66 -11 6 C-11.33 6.99 -11.66 7.98 -12 9 C-12.66 9 -13.32 9 -14 9 C-14 7.35 -14 5.7 -14 4 C-9.22642128 1.28608722 -5.65611463 -0.56561146 0 0 Z " fill="#F1A175" transform="translate(222,109)"/>
<path d="M0 0 C1.67542976 0.28604898 3.34385343 0.61781233 5 1 C5.33 2.65 5.66 4.3 6 6 C5.34 6 4.68 6 4 6 C4 5.01 4 4.02 4 3 C3.01 3 2.02 3 1 3 C1 4.98 1 6.96 1 9 C-1.375 9.625 -1.375 9.625 -4 10 C-4.66 9.34 -5.32 8.68 -6 8 C-6 6.68 -6 5.36 -6 4 C-5.34 4 -4.68 4 -4 4 C-3.67 4.99 -3.34 5.98 -3 7 C-2.34 7.33 -1.68 7.66 -1 8 C-1.020625 6.865625 -1.04125 5.73125 -1.0625 4.5625 C-1 1 -1 1 0 0 Z " fill="#F29B6C" transform="translate(208,96)"/>
<path d="M0 0 C0.99 0 1.98 0 3 0 C2.731875 0.886875 2.46375 1.77375 2.1875 2.6875 C1.59860059 6.19767101 1.59860059 6.19767101 4.4375 8.75 C5.283125 9.4925 6.12875 10.235 7 11 C7 11.66 7 12.32 7 13 C3.37386801 12.43040847 1.74482259 11.07625466 -0.75 8.4375 C-1.36359375 7.79683594 -1.9771875 7.15617188 -2.609375 6.49609375 C-3.29773438 5.75552734 -3.29773438 5.75552734 -4 5 C-3.67 4.34 -3.34 3.68 -3 3 C-2.34 3 -1.68 3 -1 3 C-0.67 2.01 -0.34 1.02 0 0 Z " fill="#F29B6D" transform="translate(188,197)"/>
<path d="M0 0 C2.2477975 2.05233685 3.0022242 3.00667261 4 6 C3.34 6 2.68 6 2 6 C2 6.66 2 7.32 2 8 C1.01 8.33 0.02 8.66 -1 9 C-0.45276317 12.37462715 0.0549 14.08235 2 17 C-0.86724686 16.42655063 -1.8614515 16.1385485 -4 14 C-4.375 11.0625 -4.375 11.0625 -4 8 C-2 6.125 -2 6.125 0 5 C-0.2784375 4.0409375 -0.2784375 4.0409375 -0.5625 3.0625 C-0.706875 2.381875 -0.85125 1.70125 -1 1 C-0.67 0.67 -0.34 0.34 0 0 Z " fill="#F29969" transform="translate(84,51)"/>
<path d="M0 0 C2.125 0.375 2.125 0.375 4 1 C3.25 5.75 3.25 5.75 1 8 C-1.125 7.625 -1.125 7.625 -3 7 C-2.25 2.25 -2.25 2.25 0 0 Z " fill="#EBDFD1" transform="translate(86,215)"/>
<path d="M0 0 C2.125 0.375 2.125 0.375 4 1 C4.6875 2.8125 4.6875 2.8125 5 5 C3.8125 6.8125 3.8125 6.8125 2 8 C-0.1875 7.6875 -0.1875 7.6875 -2 7 C-2.125 4.625 -2.125 4.625 -2 2 C-1.34 1.34 -0.68 0.68 0 0 Z " fill="#EFB694" transform="translate(156,223)"/>
<path d="M0 0 C1.67542976 0.28604898 3.34385343 0.61781233 5 1 C5 2.65 5 4.3 5 6 C2.625 6.625 2.625 6.625 0 7 C-0.66 6.34 -1.32 5.68 -2 5 C-1.46428571 1.46428571 -1.46428571 1.46428571 0 0 Z " fill="#585857" transform="translate(492,113)"/>
<path d="M0 0 C0.99 0 1.98 0 3 0 C3 4.29 3 8.58 3 13 C2.01 13 1.02 13 0 13 C0 8.71 0 4.42 0 0 Z " fill="#F29A6B" transform="translate(128,223)"/>
<path d="M0 0 C3.96502948 0.45057153 7.35465276 1.39175857 11 3 C11 3.66 11 4.32 11 5 C10.34 5 9.68 5 9 5 C8.67 5.66 8.34 6.32 8 7 C8 6.34 8 5.68 8 5 C5.69 4.34 3.38 3.68 1 3 C0.67 3.99 0.34 4.98 0 6 C-0.66 6 -1.32 6 -2 6 C-1.125 1.125 -1.125 1.125 0 0 Z " fill="#F29A6B" transform="translate(47,91)"/>
<path d="M0 0 C0 0.99 0 1.98 0 3 C1.32 3.33 2.64 3.66 4 4 C3.67 4.66 3.34 5.32 3 6 C1.948125 5.5978125 1.948125 5.5978125 0.875 5.1875 C-2.46011275 4.96999265 -2.86550387 5.36830612 -5.3125 7.4375 C-6.199375 8.283125 -7.08625 9.12875 -8 10 C-8 6.45595664 -7.39010515 5.89732095 -5.125 3.3125 C-4.59132812 2.68988281 -4.05765625 2.06726563 -3.5078125 1.42578125 C-2 0 -2 0 0 0 Z " fill="#F29B6C" transform="translate(194,71)"/>
<path d="M0 0 C1.98 0.66 3.96 1.32 6 2 C6 6 6 6 5 8 C2.5625 7.3125 2.5625 7.3125 0 6 C-0.875 3.4375 -0.875 3.4375 -1 1 C-0.67 0.67 -0.34 0.34 0 0 Z " fill="#EFB491" transform="translate(153,55)"/>
<path d="M0 0 C1.67542976 0.28604898 3.34385343 0.61781233 5 1 C5 2.98 5 4.96 5 7 C3.35 6.67 1.7 6.34 0 6 C-0.38218767 4.34385343 -0.71395102 2.67542976 -1 1 C-0.67 0.67 -0.34 0.34 0 0 Z " fill="#EBDCCC" transform="translate(83,59)"/>
<path d="M0 0 C0.99 0 1.98 0 3 0 C3 3.96 3 7.92 3 12 C2.01 12 1.02 12 0 12 C0 8.04 0 4.08 0 0 Z " fill="#F1A176" transform="translate(127,45)"/>
<path d="M0 0 C0.66 0.33 1.32 0.66 2 1 C1.67 2.65 1.34 4.3 1 6 C2.65 6 4.3 6 6 6 C6 6.99 6 7.98 6 9 C4.35 9.66 2.7 10.32 1 11 C-2.06451613 6.70967742 -2.06451613 6.70967742 -1.75 3.25 C-1 1 -1 1 0 0 Z " fill="#F29868" transform="translate(47,182)"/>
<path d="M0 0 C2 3 2 3 2 5 C0.35 5.66 -1.3 6.32 -3 7 C-3.66 6.34 -4.32 5.68 -5 5 C-4.625 2.875 -4.625 2.875 -4 1 C-2.02 1.495 -2.02 1.495 0 2 C0 1.34 0 0.68 0 0 Z " fill="#EEBB9B" transform="translate(104,55)"/>
<path d="M0 0 C2.64 0 5.28 0 8 0 C6.515 1.98 6.515 1.98 5 4 C1.125 2.25 1.125 2.25 0 0 Z " fill="#F19E71" transform="translate(113,167)"/>
<path d="M0 0 C2.96175123 0.61277612 4.38058783 1.25372522 7 3 C5.68 3 4.36 3 3 3 C2.67 3.99 2.34 4.98 2 6 C1.34 5.34 0.68 4.68 0 4 C0 2.68 0 1.36 0 0 Z " fill="#F1A278" transform="translate(112,222)"/>
<path d="M0 0 C1.65 0 3.3 0 5 0 C4.67 1.32 4.34 2.64 4 4 C2.68 3.67 1.36 3.34 0 3 C0 2.01 0 1.02 0 0 Z " fill="#EBD9C8" transform="translate(98,226)"/>
<path d="M0 0 C2.475 0.495 2.475 0.495 5 1 C4.67 1.99 4.34 2.98 4 4 C2.68 3.67 1.36 3.34 0 3 C0 2.01 0 1.02 0 0 Z " fill="#EBDAC9" transform="translate(47,185)"/>
<path d="M0 0 C0 0.66 0 1.32 0 2 C-0.99 2.495 -0.99 2.495 -2 3 C-2.33 3.99 -2.66 4.98 -3 6 C-3.66 6 -4.32 6 -5 6 C-5 4.35 -5 2.7 -5 1 C-3 0 -3 0 0 0 Z " fill="#F29A6C" transform="translate(213,112)"/>
</svg>
